<?xml version="1.0" encoding="utf-8"?>
<!-- Generator: Adobe Illustrator 20.0.0, SVG Export Plug-In . SVG Version: 6.00 Build 0)  -->
<svg version="1.1" id="iconmonstr" xmlns="http://www.w3.org/2000/svg" xmlns:xlink="http://www.w3.org/1999/xlink" x="0px" y="0px"
	 viewBox="0 0 24 18" style="enable-background:new 0 0 24 18;" xml:space="preserve">
<style type="text/css">
	.st0{fill:#AAAAAA;}
</style>
<path id="picture-8" class="st0" d="M19.5,9c-2.483,0-4.5,2.015-4.5,4.5s2.017,4.5,4.5,4.5s4.5-2.015,4.5-4.5S21.983,9,19.5,9z
	 M22,14h-2v2h-1v-2h-2v-1h2v-2h1v2h2V14z M4,14l4-5.96L10.481,10L13,6l1.852,2.964c-1.271,1.303-1.976,3.089-1.827,5.036H4z
	 M14.82,18H0V0h22v7.502c-0.623-0.261-1.297-0.422-2-0.476V2H2v14h11.502C13.814,16.749,14.267,17.424,14.82,18z M5.5,7
	C4.672,7,4,6.329,4,5.5C4,4.672,4.672,4,5.5,4S7,4.672,7,5.5C7,6.329,6.328,7,5.5,7z"/>
</svg>
